<?xml version="1.0" encoding="utf-8"?>
<!-- Generator: Adobe Illustrator 27.9.0, SVG Export Plug-In . SVG Version: 6.00 Build 0)  -->
<svg version="1.1" id="Ebene_1" xmlns="http://www.w3.org/2000/svg" xmlns:xlink="http://www.w3.org/1999/xlink" x="0px" y="0px"
	 viewBox="0 0 113.4 113.4" style="enable-background:new 0 0 113.4 113.4;" xml:space="preserve">
<style type="text/css">
	.st0{fill:#75B62E;}
</style>
<g>
	<path class="st0" d="M71.2,113.4H2.6c-1.4,0-2.6-1.1-2.6-2.6V2.6C0,1.1,1.1,0,2.6,0h68.6c1.4,0,2.6,1.1,2.6,2.6v108.3
		C73.7,112.2,72.6,113.4,71.2,113.4z"/>
	<path class="st0" d="M110.8,113.4H87.6c-1.4,0-2.6-1.1-2.6-2.6V2.6c0-1.4,1.1-2.6,2.6-2.6h23.2c1.4,0,2.6,1.1,2.6,2.6v108.3
		C113.4,112.2,112.2,113.4,110.8,113.4z"/>
</g>
</svg>
